<svg width="108" height="108" viewBox="0 0 108 108" fill="none" xmlns="http://www.w3.org/2000/svg">
<circle cx="54" cy="54" r="40" fill="#4991DC"/>
<path opacity="0.75" d="M75.6 62.24L32.4 62.24C31.0745 62.24 30 63.3145 30 64.64C30 65.9655 31.0745 67.04 32.4 67.04H75.6C76.9255 67.04 78 65.9655 78 64.64C78 63.3145 76.9255 62.24 75.6 62.24Z" fill="white"/>
<path opacity="0.75" d="M75.6 48.8L32.4 48.8C31.0745 48.8 30 49.8745 30 51.2C30 52.5255 31.0745 53.6 32.4 53.6L75.6 53.6C76.9255 53.6 78 52.5255 78 51.2C78 49.8745 76.9255 48.8 75.6 48.8Z" fill="white"/>
<path fill-rule="evenodd" clip-rule="evenodd" d="M57.52 32C54.4714 32 52 34.4714 52 37.52C52 37.5467 52.0002 37.5734 52.0006 37.6H52V54.7994C50.4999 54.0325 48.8005 53.6 47 53.6C40.9249 53.6 36 58.5248 36 64.6C36 70.6752 40.9249 75.6 47 75.6C53.0752 75.6 58 70.6752 58 64.6C58 64.2629 57.9848 63.9294 57.9552 63.6H58V43.04H66.64C69.6886 43.04 72.16 40.5686 72.16 37.52C72.16 34.4714 69.6886 32 66.64 32H57.52Z" fill="white"/>
</svg>
